<?xml version="1.0" encoding="UTF-8"?>
<svg id="Layer_1" data-name="Layer 1" xmlns="http://www.w3.org/2000/svg" viewBox="0 0 500 500">
  <defs>
    <style>
      .cls-1 {
        fill: #231f20;
      }
    </style>
  </defs>
  <path class="cls-1" d="M363.71,113.71h-229.07C59.48,113.71-1.66,174.85-1.66,250s61.14,136.29,136.29,136.29h229.07c75.15,0,136.29-61.14,136.29-136.29s-61.14-136.29-136.29-136.29ZM134.63,353.73c-57.29,0-103.73-46.44-103.73-103.73h0c0-57.29,46.44-103.73,103.73-103.73h229.07c57.29,0,103.73,46.44,103.73,103.73h0c0,21.44-6.51,41.37-17.66,57.9H162.81c-8.2,0-11.96-3.28-11.96-8.44,0-4.69,1.41-11.25,3.28-20.16l23.91-112.53h-74.78l-5.16,25.32h42.66l-18.28,86.27c-2.58,11.96-4.92,23.44-4.92,32.35,0,15,7.97,22.51,28.83,22.51h279.24c-17.28,12.88-38.71,20.51-61.93,20.51h-229.07Z"/>
</svg>